<?xml version="1.0" encoding="UTF-8" standalone="no"?>
<!-- Created with Inkscape (http://www.inkscape.org/) -->

<svg
   xmlns:dc="http://purl.org/dc/elements/1.1/"
   xmlns:cc="http://creativecommons.org/ns#"
   xmlns:rdf="http://www.w3.org/1999/02/22-rdf-syntax-ns#"
   xmlns:svg="http://www.w3.org/2000/svg"
   xmlns="http://www.w3.org/2000/svg"
   xmlns:sodipodi="http://sodipodi.sourceforge.net/DTD/sodipodi-0.dtd"
   xmlns:inkscape="http://www.inkscape.org/namespaces/inkscape"
   width="104.55674mm"
   height="58.293518mm"
   viewBox="0 0 104.55674 58.293518"
   version="1.1"
   id="svg3742"
   inkscape:version="0.92.4 (5da689c313, 2019-01-14)"
   sodipodi:docname="logo.svg">
  <defs
     id="defs3736" />
  <sodipodi:namedview
     id="base"
     pagecolor="#ffffff"
     bordercolor="#666666"
     borderopacity="1.0"
     inkscape:pageopacity="0.0"
     inkscape:pageshadow="2"
     inkscape:zoom="0.35"
     inkscape:cx="239.06791"
     inkscape:cy="327.4865"
     inkscape:document-units="mm"
     inkscape:current-layer="layer1"
     showgrid="false"
     inkscape:window-width="1920"
     inkscape:window-height="1001"
     inkscape:window-x="-9"
     inkscape:window-y="-9"
     inkscape:window-maximized="1" />
  <metadata
     id="metadata3739">
    <rdf:RDF>
      <cc:Work
         rdf:about="">
        <dc:format>image/svg+xml</dc:format>
        <dc:type
           rdf:resource="http://purl.org/dc/dcmitype/StillImage" />
        <dc:title></dc:title>
      </cc:Work>
    </rdf:RDF>
  </metadata>
  <g
     inkscape:label="Capa 1"
     inkscape:groupmode="layer"
     id="layer1"
     transform="translate(-42.579948,-177.18728)">
    <path
       style="fill:#000080;stroke-width:0.26458332"
       id="path3881"
       d="m 86.768399,187.81138 c 0.838563,3.96452 2.00261,7.83569 2.71326,11.82956 0.740627,3.9466 1.548857,7.8699 2.027502,11.86011 0.285078,2.75546 0.377396,5.52609 0.426204,8.29433 0.179398,2.56884 -0.186931,3.64762 -1.940655,5.55132 -4.673463,3.89898 -10.154833,6.84756 -16.014234,8.45505 -2.34215,0.56109 -4.752081,0.64159 -7.147809,0.71291 -2.35907,0.12981 -4.687141,-0.0179 -6.997914,-0.50189 -3.262519,-1.18465 -5.915919,-3.34006 -8.43834,-5.65374 -1.189001,-1.02258 -2.01149,-2.31216 -2.804446,-3.64018 0,0 9.658839,-5.58635 9.658839,-5.58635 v 0 c 0.71827,1.24452 1.479077,2.43 2.586236,3.37885 2.411799,2.16924 4.949211,4.2544 8.156271,5.09828 2.277694,0.35766 4.563694,0.42543 6.866498,0.29778 2.348362,-0.0956 4.707377,-0.25758 6.974366,-0.92849 0.859012,-0.26333 1.45936,-0.43385 2.305238,-0.74877 0.365945,-0.13624 1.418744,-0.6435 1.086064,-0.43904 -15.157306,9.31537 -9.879025,5.84199 -6.571149,3.81916 1.861836,-1.59751 2.473492,-2.1995 2.308662,-4.72269 2.38e-4,-2.74736 -0.03442,-5.49791 -0.289759,-8.23556 -0.416308,-3.98418 -1.19027,-7.89729 -1.941316,-11.82881 -0.681593,-3.96864 -1.7746,-7.82155 -2.852905,-11.69743 0,0 9.889387,-5.3144 9.889387,-5.3144 z"
       inkscape:connector-curvature="0" />
    <path
       style="fill:#000000;stroke-width:0.26458332"
       id="path3883"
       d="m 109.37582,185.59418 c -0.10792,4.09539 -0.088,8.19347 -0.0674,12.28993 0.007,2.96808 0.0333,5.93602 0.0567,8.90399 0.0135,1.67427 0.0176,3.34859 0.0194,5.0229 0.003,1.76779 -0.015,3.53543 -0.0139,5.30323 8e-4,0.31892 10e-4,0.63785 0.002,0.95677 0,0 -9.988304,5.0893 -9.988304,5.0893 v 0 c 7.9e-4,-0.31961 0.001,-0.63921 0.002,-0.95882 0.001,-1.76307 -0.0172,-3.52599 -0.0139,-5.28905 0.002,-1.68092 0.006,-3.36185 0.0194,-5.04272 0.0233,-2.98721 0.0496,-5.9744 0.0567,-8.96172 0.0203,-4.07355 0.0415,-8.14879 -0.0674,-12.22123 0,0 9.994744,-5.09258 9.994744,-5.09258 z"
       inkscape:connector-curvature="0" />
    <path
       style="fill:#000000;stroke-width:0.26458332"
       id="path3885"
       d="m 95.212969,179.81212 c 2.50749,-0.7282 5.053671,-1.31437 7.595991,-1.90331 2.48496,-0.50537 5.02262,-0.59865 7.54922,-0.67089 2.27724,-0.044 4.55492,-0.0366 6.83245,-0.0369 2.24093,-0.01 4.46142,-0.10737 6.65424,0.40618 2.79758,0.82189 4.91699,2.80738 7.20828,4.4918 2.22636,1.33208 4.17884,3.04947 6.3468,4.46655 1.62903,1.00509 3.00406,2.32965 4.41829,3.60133 1.19291,1.17019 2.44926,2.33058 3.43216,3.68889 1.15001,1.4546 1.47473,3.21966 1.69794,5.00959 0.19758,2.1111 0.17793,4.23581 0.18835,6.3542 -0.10254,1.79743 -0.44525,3.56686 -0.60651,5.35941 0.006,1.91684 -1.35322,2.89677 -2.52873,4.17523 -0.80754,1.32997 -1.63999,2.52118 -2.82549,3.53867 -1.42218,1.02293 -2.53034,2.38223 -3.81311,3.55577 -3.94691,2.86491 -0.82761,0.64141 -11.15287,6.48912 -0.40647,0.23021 -1.24214,0.61951 -1.68639,0.77064 -0.3104,0.10559 -0.63254,0.17289 -0.94882,0.25933 -0.31112,0.10977 -0.62223,0.21954 -0.93335,0.3293 -2.04513,1.33442 -4.22411,2.21572 -6.58986,2.79154 -1.70629,0.17344 -3.32079,0.74094 -5.0078,1.01316 -1.59168,0.13576 -3.12735,0.53279 -4.72006,0.70143 -2.33429,0.21223 -4.68242,0.21718 -7.024611,0.22627 -2.54295,0.0465 -5.08611,-0.18424 -7.57903,0.39711 -1.37749,0.36499 -0.71521,0.1439 -1.98983,0.65426 0,0 8.84111,-6.87815 8.84111,-6.87815 v 0 c 1.34863,-0.38397 0.65828,-0.21361 2.072151,-0.50666 2.54764,-0.33458 5.11201,-0.19598 7.67588,-0.23416 2.33165,-0.0381 4.67118,-0.0575 6.98689,-0.3641 1.57316,-0.2434 3.13157,-0.56462 4.7098,-0.77471 1.63475,-0.35687 3.26699,-0.71263 4.90615,-1.04628 2.3161,-0.69877 4.37432,-1.85974 6.56,-2.86443 0.91251,-0.30993 1.78366,-0.6374 2.64843,-1.06471 0.27921,-0.13796 1.10118,-0.5814 0.83307,-0.42296 -6.94769,4.10587 -11.93918,6.8794 -8.02551,4.69959 1.46276,-0.98566 2.39495,-2.48779 3.82036,-3.52856 1.20969,-0.97139 2.36698,-1.79978 2.91254,-3.33563 0.46388,-0.64577 0.49092,-0.74767 1.07578,-1.30039 0.8714,-0.82351 1.63312,-0.89613 1.74831,-2.26878 0.12675,-1.77555 0.38476,-3.52715 0.6601,-5.28505 0.009,-2.07981 0.0234,-4.16311 -0.13432,-6.23848 -0.16764,-1.6086 -0.38971,-3.19145 -1.44618,-4.48774 -0.9473,-1.2899 -2.14679,-2.39995 -3.29365,-3.50845 -1.35622,-1.25617 -2.75461,-2.46954 -4.31132,-3.47643 -2.12553,-1.48488 -4.1239,-3.14536 -6.30834,-4.54748 -2.17389,-1.62095 -4.27225,-3.43409 -6.99386,-4.04057 -2.16745,-0.33764 -4.35307,-0.19706 -6.53993,-0.22339 -2.2618,-0.008 -4.52431,-0.0151 -6.78538,0.0514 -2.490061,0.0963 -4.989141,0.25972 -7.418791,0.85314 -2.53681,0.62248 -5.10704,1.13305 -7.57373,2.01005 0,0 8.86318,-6.88577 8.86318,-6.88577 z"
       inkscape:connector-curvature="0" />
    <path
       style="fill:#666666;stroke-width:0.26458332"
       id="path3887"
       d="m 51.45474,195.55819 c 2.955745,-0.69377 5.760966,-1.86517 8.573447,-2.98151 1.889882,-0.58849 3.634838,-1.54085 5.511729,-2.15718 0.317052,-0.0976 0.642564,-0.17112 0.951163,-0.29285 0.362958,-0.14318 0.705618,-0.33325 1.058429,-0.49987 0.375923,-0.16447 0.745538,-0.3442 1.127773,-0.49343 1.310915,-0.51178 2.680978,-0.89743 4.011152,-1.35633 3.048603,-0.91354 5.964153,-2.20944 9.033568,-3.06587 2.034749,-1.1144 4.366255,-1.49409 6.461162,-2.41745 1.854417,-1.18376 4.06045,-1.42863 6.00207,-2.41426 0.274768,-0.12748 1.086226,-0.53458 0.824299,-0.38245 -2.965227,1.72216 -11.900823,6.81924 -8.937207,5.09431 3.945917,-2.29667 7.5378,-5.40645 12.007149,-6.39566 0,0 -8.884092,6.85265 -8.884092,6.85265 v 0 c -0.270946,0.10176 -0.546922,0.19102 -0.812837,0.30529 -0.245689,0.10558 -0.950751,0.48893 -0.720177,0.35348 18.725972,-11.00059 4.251494,-2.15375 -2.260388,1.13569 -2.014752,0.78441 -4.117105,1.33221 -6.035006,2.36203 -2.177306,0.71528 -4.322432,1.49812 -6.465287,2.31136 -3.027658,0.95122 -5.964425,2.16308 -8.997312,3.0994 -2.433582,0.83757 -4.807685,1.80219 -7.212081,2.71437 -1.810681,0.72061 -3.597791,1.50173 -5.440328,2.14187 -2.843014,1.11718 -5.722289,2.13598 -8.672018,2.93819 0,0 8.874792,-6.85178 8.874792,-6.85178 z"
       inkscape:connector-curvature="0" />
  </g>
</svg>
